<svg xmlns="http://www.w3.org/2000/svg" width="165.648" height="20.275" data-name="그룹 66"><g data-name="그룹 31"><path d="M92.748 16.481l-.2-12.878h3.993v15.873h-5.789L86.758 6.198l.2 13.278h-3.892V3.603h5.89z" data-name="패스 43"/><path d="M20.765 4.8l-2.3 14.774h-4.288l2.995-15.972h7.093l2.995 15.974h-4.295z" data-name="패스 44"/><path d="M44.128 4.8l-2.8 14.774h-4.089L34.539 4.8l-.1 14.774h-3.985l.3-15.972h6.487l2.1 12.579 2-12.579h6.589l.3 15.974h-4z" data-name="패스 45"/><path d="M72.983 17.28a1.34 1.34 0 001.494-1.166V3.602h4.093v12.484c-.3 2.995-2.6 3.993-5.591 3.993s-5.289-1-5.591-3.993V3.602h4.095v12.484a1.431 1.431 0 001.5 1.2" data-name="패스 46"/><path d="M106.426 17.082a1.381 1.381 0 001.588-1.137c0-.02.006-.04.009-.061v-2.9h-1.6v-2.3h5.691v4.298a4.1 4.1 0 01-.1 1.1c-.3 2.894-2.8 3.993-5.591 3.993s-5.39-1-5.689-3.993c0-.4-.1-.7-.1-1.1V8.194a4.1 4.1 0 01.1-1.1c.4-2.995 2.795-3.893 5.69-3.893s5.291.9 5.591 3.893v1.6h-4.095v-1.5a1.708 1.708 0 00-1.6-1.2 1.435 1.435 0 00-1.6 1.2 1.941 1.941 0 00-.1.8v7.888a1.642 1.642 0 001.8 1.2" data-name="패스 52"/><path d="M59.506 15.082a2.429 2.429 0 010 1.2 1.687 1.687 0 01-3.195-.1v-1.7h-4.192v1.2c0 3.494 2.8 4.592 5.79 4.592 2.9 0 5.191-1 5.591-3.594a5.692 5.692 0 000-2.6c-.7-3.294-6.689-4.292-7.188-6.189a1.1 1.1 0 010-.8 1.27 1.27 0 011.492-1h.006a1.286 1.286 0 011.393 1.169c0 .043.005.086 0 .129v1.1h3.993v-1.3c0-3.494-3.094-3.993-5.39-3.993-2.8 0-5.092.9-5.59 3.494a7.363 7.363 0 000 2.1c.9 3.294 6.489 4.193 7.286 6.29" data-name="패스 53"/><path d="M7.387 15.082a2.429 2.429 0 010 1.2 1.5 1.5 0 01-1.5 1.1 1.457 1.457 0 01-1.6-1.3v-1.7H0v1.2c0 3.594 2.8 4.692 5.79 4.692s5.291-1 5.691-3.694a5.7 5.7 0 000-2.6c-.7-3.393-6.789-4.392-7.186-6.189a1.1 1.1 0 010-.8 1.242 1.242 0 011.368-1.1h.029a1.357 1.357 0 011.493 1.2v1.2h3.993v-1.1c0-3.494-3.092-3.993-5.389-3.993-2.895 0-5.191 1-5.589 3.594a3.738 3.738 0 000 2.1c.7 3.195 6.389 4.193 7.186 6.19" data-name="패스 54"/></g><g data-name="그룹 32"><path d="M133.667 13.62a1.116 1.116 0 01-.257.778.9.9 0 01-.542.321 12.91 12.91 0 01-1.292.038l-.215-1.116a3.514 3.514 0 00.515.032q.708 0 .708-.343v-8.6h-1.909v14.574h-1.072V4.73h-1.87v10.059h-1.1v-11.1h2.971V.161h1.072v3.528h2.992zm11.7 4.858l-.675.847q-4.14-2.638-6.06-9.791h-1.566v8.258a24.764 24.764 0 003.185-1.319l.418.986a43.644 43.644 0 01-4.365 1.8l-.44-.858a2.631 2.631 0 00.086-.783V9.532h-1.587V8.459h1.587V.201h1.116v6.017a27.1 27.1 0 005.695-5.158l.944.633a33.642 33.642 0 01-6.639 5.887v.879h8.108v1.073h-5.384q1.599 6.191 5.578 8.948z" data-name="패스 55"/><path d="M165.649 9.181h-14.393q-.043 6.853-2.606 10.124l-.879-.654q2.349-3.335 2.349-9.728V2.66h7.314a25.069 25.069 0 00-1.3-2.306L157.271 0a24.919 24.919 0 011.437 2.66h6.939zm-1.147-1.159V3.807h-13.246v4.215z" data-name="패스 56"/></g></svg>